<svg xmlns="http://www.w3.org/2000/svg" xmlns:xlink="http://www.w3.org/1999/xlink" version="1.1" viewBox="0 0 32 40" x="0px" y="0px"><path d="M28.149 13.363c-0.266-0.266-0.697-0.266-0.963 0l-4.765 4.765-2.247-2.247 2.249-2.249 1.15 1.151c0.266 0.266 0.697 0.266 0.963 0s0.267-0.697 0-0.964l-1.15-1.15 1.393-1.394c0.266-0.266 0.266-0.697 0-0.963s-0.697-0.266-0.964 0l-1.393 1.394-2.247-2.248 1.554-1.553c0.266-0.266 0.266-0.697 0-0.963-0.268-0.266-0.697-0.266-0.964 0l-1.554 1.553-4.525-4.525c-0.266-0.266-0.697-0.266-0.963 0s-0.266 0.697 0 0.963l4.525 4.526-2.248 2.248-4.525-4.525c-0.266-0.266-0.695-0.268-0.963 0-0.265 0.266-0.266 0.697 0 0.963l4.525 4.525-5.458 5.458-2.247-2.247 4.444-4.444c0.266-0.266 0.266-0.697 0-0.963s-0.697-0.266-0.963 0l-4.444 4.444-1.315-1.317c-0.266-0.266-0.697-0.266-0.963 0s-0.266 0.697 0 0.963l1.316 1.316-1.555 1.553c-0.266 0.266-0.266 0.697 0 0.963 0.268 0.266 0.697 0.266 0.964 0l1.553-1.553 2.247 2.247-1.554 1.553c-0.266 0.266-0.266 0.697 0 0.963s0.697 0.266 0.964 0l1.553-1.553 3.398 3.399c0.266 0.266 0.697 0.266 0.963 0 0.268-0.267 0.268-0.697 0-0.964l-3.398-3.398 5.458-5.458 2.248 2.249-1.393 1.393c-0.266 0.266-0.266 0.697 0 0.963s0.697 0.266 0.963 0l1.393-1.393 2.247 2.247-2.246 2.247-4.205-4.205c-0.266-0.266-0.698-0.265-0.963 0-0.268 0.268-0.266 0.697 0 0.963l4.205 4.205-4.765 4.764c-0.266 0.268-0.266 0.697 0 0.964 0.266 0.266 0.697 0.266 0.963 0l4.764-4.766 1.794 1.792c0.266 0.266 0.695 0.268 0.963 0 0.265-0.265 0.266-0.697 0-0.963l-1.794-1.794 2.246-2.247 1.793 1.793c0.266 0.266 0.699 0.266 0.964 0 0.268-0.266 0.266-0.697 0-0.963l-1.794-1.793 4.765-4.765c0.268-0.265 0.268-0.696 0-0.962zM16.964 12.67l2.247-2.248 2.249 2.248-2.249 2.249-2.247-2.249z" fill="#000000"/><text x="0" y="47" fill="#000000" font-size="5px" font-weight="bold" font-family="'Helvetica Neue', Helvetica, Arial-Unicode, Arial, Sans-serif">Created by Rineesh</text><text x="0" y="52" fill="#000000" font-size="5px" font-weight="bold" font-family="'Helvetica Neue', Helvetica, Arial-Unicode, Arial, Sans-serif">from the Noun Project</text></svg>